<svg width="40" height="40" viewBox="0 0 40 40" fill="none" xmlns="http://www.w3.org/2000/svg">
<path d="M26.4281 5.98619C24.3614 5.10499 22.0261 5.07122 19.9342 5.89227C17.8424 6.71333 16.1648 8.32221 15.2691 10.3661L9.64966 23.223C8.7739 25.266 8.74984 27.569 9.58273 29.6295C10.4156 31.69 12.0378 33.3407 14.0953 34.2213C16.1529 35.1018 18.4786 35.1408 20.5651 34.3298C22.6515 33.5187 24.3293 31.9234 25.2321 29.892L30.8448 17.0351C31.7355 14.9897 31.7707 12.678 30.9428 10.6068C30.1149 8.53563 28.4913 6.87401 26.4281 5.98619ZM29.1138 16.2993L23.5011 29.1516C22.8063 30.7429 21.5015 31.9957 19.8737 32.6344C18.246 33.2731 16.4286 33.2454 14.8215 32.5574C13.2144 31.8694 11.9491 30.5775 11.3041 28.9658C10.659 27.3541 10.687 25.5547 11.3818 23.9634L16.9944 11.1065C17.6893 9.51523 18.9941 8.26243 20.6218 7.62372C22.2496 6.985 24.0669 7.0127 25.674 7.7007C27.2812 8.38871 28.5464 9.68067 29.1915 11.2924C29.8366 12.9041 29.8086 14.7035 29.1138 16.2948V16.2993Z" fill="#5EA3D6"/>
<path d="M24.3575 21.2668C24.2952 21.0775 24.1632 20.9184 23.9878 20.821C23.8124 20.7237 23.6064 20.6953 23.4108 20.7415C20.7812 21.3415 18.7232 20.4913 17.6347 18.3506C17.5469 18.1759 17.397 18.0395 17.2139 17.9675C17.0308 17.8954 16.8272 17.8928 16.6423 17.96L16.6011 17.9759C16.4975 18.0152 16.4033 18.0754 16.3244 18.1527C16.2455 18.23 16.1838 18.3227 16.143 18.4249C16.1023 18.5271 16.0834 18.6366 16.0877 18.7464C16.092 18.8562 16.1192 18.9639 16.1678 19.0627C17.597 21.8781 20.4096 23.0815 23.787 22.314C23.8941 22.2893 23.9949 22.243 24.0831 22.1781C24.1713 22.1131 24.2451 22.0309 24.2998 21.9365C24.3545 21.842 24.389 21.7375 24.4011 21.6292C24.4132 21.521 24.4026 21.4115 24.3701 21.3076L24.3575 21.2668Z" fill="#21A560"/>
</svg>
